PathFileType	4	(X/Y/Z)	OpenSim_Sub01_CSStiffKnee_Accel.trc
DataRate	CameraRate	NumFrames	NumMarkers	Units	OrigDataRate	OrigDataStartFrame	OrigNumFrames
100	100	41	8	m	100	4709	5381
Frame#	Time	torso_imu_offset_imu	pelvis_imu_offset_imu	tibia_r_imu_offset_imu	femur_r_imu_offset_imu	tibia_l_imu_offset_imu	femur_l_imu_offset_imu	toes_r_imu_offset_imu	toes_l_imu_offset_imu
				X1	Y1	Z1	X2	Y2	Z2	X3	Y3	Z3	X4	Y4	Z4	X5	Y5	Z5	X6	Y6	Z6	X7	Y7	Z7	X8		Y8	Z8	

4709	47.08000000	9.05338627	-1.50014370	5.92697336	9.53541892	2.14610815	3.09848318	9.98614938	1.53540681	-0.18031298	9.45931674	0.94746195	0.59781986	10.03266520	-5.35653928	1.18078430	9.55040382	1.97041233	-0.06920544	5.56599968	-1.54967155	8.17193981	7.02826288	0.32800849	13.90046707
4710	47.09000000	9.11678462	-1.52444939	6.03928425	9.67777725	2.01974399	3.02014202	10.06060741	1.06560648	-0.39379665	9.43305700	1.05776901	0.58318400	10.16384655	-5.63704844	0.92790242	9.63920417	2.21636964	0.03143215	5.47370813	-1.67639188	8.18933970	7.34615345	0.21214630	13.53529681
4711	47.10000000	9.14458801	-1.53277185	6.14436221	9.69492902	1.87225165	2.97772680	10.11053058	0.61361928	-0.58865186	9.54120369	1.13193974	0.55091818	10.12493123	-5.83139284	0.68381374	9.75060648	2.24549395	0.10742804	5.31287135	-1.84914877	8.28785839	7.67845168	-0.06306602	13.06771886
4712	47.11000000	9.14458628	-1.52922606	6.24587769	9.62501180	1.75350506	2.94227937	10.14956789	0.37212761	-0.71086020	9.62835862	1.13741517	0.42179335	9.89391668	-5.95193395	0.59459399	9.76631923	2.09584624	0.13135661	5.18005742	-1.94627161	8.38345221	7.94882704	-0.27262309	12.39745503
4713	47.12000000	9.12509095	-1.51494212	6.34457393	9.50840190	1.69658376	2.89756589	10.18190475	0.41153020	-0.73836243	9.60804050	1.04456144	0.16423137	9.51918463	-5.97759319	0.71885218	9.63656634	1.83744354	0.09392241	5.13920293	-1.91464686	8.41903635	8.16688203	-0.26428240	11.52078980
4714	47.13000000	9.09550418	-1.48425989	6.43467867	9.38957161	1.69674840	2.85648396	10.18980864	0.52799293	-0.72095892	9.55078390	0.83035742	-0.14548686	9.20473255	-5.81230252	0.91845299	9.46629747	1.60979330	0.02661728	5.17967003	-1.85612932	8.39951252	8.53577513	-0.05278812	10.65184395
4715	47.14000000	9.06548845	-1.43188154	6.50964581	9.30940627	1.74293417	2.83458033	10.15843260	0.50608670	-0.71302879	9.54297732	0.48061334	-0.42128626	9.15010916	-5.36957660	1.04089399	9.36744420	1.54523693	-0.03491465	5.27771496	-1.87982263	8.34127597	9.25925950	0.31291972	10.01160496
4716	47.15000000	9.04587015	-1.36573482	6.56404162	9.26603983	1.81160220	2.83405831	10.13333533	0.39374319	-0.71584316	9.61535116	0.06307459	-0.62664333	9.29156319	-4.76660741	1.06017521	9.30788823	1.60506833	-0.06913637	5.37846284	-1.95319702	8.29279099	10.27685840	0.66413184	9.58766400
4717	47.16000000	9.04813365	-1.30154502	6.59313251	9.23249795	1.87192157	2.84919348	10.19547263	0.39379553	-0.69937214	9.76572134	-0.30627998	-0.75423862	9.41047598	-4.24042270	1.02483929	9.17085314	1.65004539	-0.06288977	5.40892848	-1.96044981	8.32120016	11.37217034	0.76221285	9.22979915
4718	47.17000000	9.07769305	-1.25411998	6.60150859	9.20538533	1.90717481	2.86233640	10.37560078	0.61202882	-0.63950558	9.97469649	-0.53285842	-0.79104296	9.38489790	-3.96114818	0.96593755	8.90707278	1.61866415	-0.01510689	5.35002918	-1.84474792	8.44285217	12.31759541	0.52266146	8.76017430
4719	47.18000000	9.12639920	-1.23599556	6.61454337	9.23464204	1.93234555	2.82945839	10.59144656	0.93322080	-0.52624459	10.18544039	-0.57117973	-0.71044499	9.31303994	-3.94617727	0.87334385	8.62035586	1.62577458	0.04854563	5.30347552	-1.68323676	8.56022232	12.86504383	0.20690739	7.94331311
4720	47.19000000	9.18354652	-1.25773537	6.65757461	9.36936350	1.96490425	2.70935301	10.75091618	1.22208089	-0.35618525	10.33999529	-0.39262054	-0.49337198	9.31156187	-4.17322929	0.73312104	8.42464959	1.80015892	0.10139733	5.37286672	-1.56616076	8.57217763	12.81192486	0.09723012	6.58111880
4721	47.20000000	9.23098388	-1.31271613	6.72653964	9.57542371	2.00371273	2.52679807	10.81841707	1.44485583	-0.17429597	10.42113034	-0.07398877	-0.21754946	9.38004946	-4.42378791	0.54950736	8.32474424	2.16809024	0.14375926	5.51256928	-1.53184554	8.49939871	12.45398413	0.20793900	4.94190121
4722	47.21000000	9.24624341	-1.38419648	6.80005603	9.76972415	2.03668814	2.34536781	10.79176878	1.62764382	-0.05389214	10.43565593	0.24592777	-0.01745148	9.44902598	-4.36472465	0.33752969	8.26115171	2.69525066	0.19182810	5.58926933	-1.58785535	8.43421091	12.37938352	0.39546226	3.56823048
4723	47.22000000	9.22286250	-1.45982098	6.86180366	9.89472730	2.05869951	2.20143217	10.68605314	1.78668714	-0.02834906	10.39377268	0.47393930	0.04744665	9.44916182	-3.90655301	0.12636163	8.19865358	3.32194170	0.25521216	5.54460940	-1.71337679	8.42348748	12.84608251	0.55803011	2.81657124
4724	47.23000000	9.19021496	-1.53731223	6.90725722	9.95134151	2.08044298	2.06954220	10.55390514	1.91451093	-0.04110750	10.31255251	0.62038482	0.08664836	9.31344723	-3.50672240	-0.02356918	8.15803730	3.93358134	0.32836139	5.49000839	-1.82516530	8.41061973	13.36683763	0.69169739	2.62022749
4725	47.24000000	9.17717146	-1.61389750	6.93422459	9.94776648	2.11185935	1.91957979	10.44840022	1.99888668	-0.02897863	10.20899010	0.70591557	0.21857331	8.98953778	-3.63701865	-0.05947226	8.15817390	4.41321386	0.40243861	5.54680265	-1.84029686	8.33265434	13.40184258	0.79644508	2.82996502
4726	47.25000000	9.15735011	-1.66761347	6.94812485	9.88583444	2.13298384	1.75957625	10.37470439	2.01164070	0.01404253	10.08968479	0.71302770	0.41765005	8.57324710	-4.15324266	-0.05105790	8.11991832	4.69604244	0.45584609	5.70155971	-1.76636341	8.20568740	12.90959145	0.77613923	3.03555006
4727	47.26000000	9.07190286	-1.66527277	6.95883742	9.76370758	2.10630270	1.61998833	10.30974876	1.91546173	0.06032286	9.95510221	0.60179665	0.57345225	8.24736148	-4.54895024	-0.13977750	7.90672637	4.74811523	0.45946145	5.86150894	-1.66426564	8.09231265	12.14275376	0.47888682	2.67506874
4728	47.27000000	8.88910396	-1.59419192	6.96996584	9.59782328	2.01394426	1.51445850	10.23625634	1.72999931	0.10242022	9.80542590	0.35082827	0.59399423	8.10406622	-4.55743393	-0.35613789	7.47142593	4.55156768	0.38478896	5.96851178	-1.57634274	8.02663622	11.40124222	-0.04790477	1.67130323
4729	47.28000000	8.63868112	-1.48776084	6.97098191	9.44550152	1.88236975	1.41846528	10.15068770	1.60226125	0.17891400	9.64038683	-0.01927878	0.43088342	8.03088338	-4.45734997	-0.48102988	6.96791336	4.12354083	0.20494807	6.04399114	-1.50198082	7.97785973	11.08189811	-0.31052742	1.03289667
4730	47.29000000	8.36498323	-1.38203975	6.95155589	9.36716642	1.74041193	1.31851279	10.05647236	1.67185746	0.32898733	9.46250239	-0.47869159	0.05866053	7.92916999	-4.55217804	-0.30911897	6.59330529	3.49352200	-0.09298121	6.11688659	-1.43431749	7.91097980	11.48240113	0.18842627	1.81430281
4731	47.30000000	8.17746100	-1.27629837	6.92314672	9.39818151	1.57945981	1.36823834	10.00979480	1.82412388	0.53377043	9.30368799	-0.96090399	-0.37227212	8.12899463	-4.63987256	-0.12595206	6.71004520	2.76955928	-0.38005175	6.18260077	-1.36198204	7.83824440	11.74133021	1.36113764	4.02611870
4732	47.31000000	8.22367241	-1.14812312	6.91007285	9.55911371	1.36882716	1.81899678	10.09793154	1.79509001	0.74031376	9.21329365	-1.37785391	-0.60830405	9.21128096	-4.22120767	-0.50396083	7.77666138	2.10603962	-0.44441338	6.21673087	-1.27110789	7.79970645	10.31980855	2.77402394	7.06318361
4733	47.32000000	8.58820725	-0.97929828	6.93793749	9.86776990	1.08062604	2.73642013	10.40208291	1.46757972	0.93090504	9.26024974	-1.65802144	-0.50912303	11.32313454	-3.01622767	-1.44503991	9.94572357	1.65630168	-0.24080993	6.19026116	-1.18251614	7.82076471	7.01665417	3.88046912	10.32546119
4734	47.33000000	9.21405744	-0.76160009	7.03483971	10.33622526	0.69384891	3.76892496	10.98899492	1.05626024	1.16743865	9.55667293	-1.76741828	-0.19019197	13.63646197	-1.24279777	-1.66978925	12.68435505	1.57000877	-0.09809199	6.06445454	-1.19449738	7.89331876	4.63497781	3.89162104	13.24210651
4735	47.34000000	10.01764829	-0.49294016	7.22221040	10.96238685	0.19427602	4.53942896	11.89975542	0.80055946	1.50954480	10.19781159	-1.68197647	0.19799754	15.23232648	0.75759565	0.06595273	15.34302889	1.96977232	-0.34434835	5.81437057	-1.39764481	7.99827214	5.97387307	2.14341281	15.26503918
4736	47.35000000	10.83893273	-0.22061208	7.44915439	11.60590198	-0.37184883	4.99039797	12.93075748	0.73198809	1.88228074	11.04444734	-1.42761585	0.50061153	15.61616812	2.06263119	2.85277952	17.02543434	2.70406432	-0.77723131	5.57108002	-1.69487358	8.04980336	9.59440722	-0.40161925	16.04041469
4737	47.36000000	11.47298621	-0.02079106	7.62223341	12.04522537	-0.92240180	5.25253473	13.73453023	0.75948618	2.13154162	11.81932163	-1.05973711	0.56095415	14.54578215	1.41217066	4.51571019	16.69352689	3.45960960	-0.88277169	5.55722144	-1.87891634	7.92329608	11.56706744	-1.82590775	15.33145469
4738	47.37000000	11.76457417	0.08321757	7.67405593	12.13688194	-1.33032567	5.39975511	14.06621709	0.80933227	2.15069552	12.30330136	-0.63215895	0.37067278	12.20527217	-1.43126818	3.90537022	14.12473799	3.91688499	-0.42015954	5.89688632	-1.85502226	7.61433401	9.97116817	-1.16991941	13.42806676
4739	47.38000000	11.67062790	0.18690826	7.59657442	11.91393363	-1.36933946	5.37383975	13.91407042	0.85002650	1.94131829	12.41092794	-0.19432004	0.25246206	9.72267227	-4.41360581	2.19728560	10.92013198	3.74709094	0.23293685	6.49164053	-1.78267260	7.38781819	7.44008146	0.36070608	11.79196006
4740	47.39000000	11.17893798	0.39191691	7.39347361	11.43390910	-0.83473379	5.11288290	13.31085395	0.86265343	1.52761635	12.08557662	0.21246070	0.53086660	8.25624001	-5.42085299	0.77306853	8.79193949	2.66343719	0.63481335	7.24319984	-1.85059389	7.51559855	6.91742323	1.37897290	11.85349626
4741	47.40000000	10.43919513	0.69733608	7.10666284	10.76032563	0.11690317	4.70149545	12.42323145	0.89923665	1.01627525	11.38156874	0.62457100	1.08710519	7.95771621	-4.92151028	-0.10565789	8.05268263	0.82577916	0.54660776	8.36566253	-2.19430476	7.96506633	8.18829964	1.65006237	13.08258324
4742	47.41000000	9.69629850	1.04174548	6.80056266	9.96042008	1.11622387	4.31047036	11.49647790	1.05362763	0.56241402	10.41912130	1.12399469	1.54148481	8.38498730	-4.90248764	-0.83671343	8.18934215	-1.34204388	-0.14996053	10.25516901	-2.91669388	8.52383296	9.17863680	1.61819755	13.79633422
4743	47.42000000	9.13193557	1.35918335	6.53157943	9.14103478	1.87313266	4.05767880	10.69577758	1.41548039	0.27413639	9.41328767	1.74100904	1.64378709	9.07480199	-6.28473678	-1.55285585	8.72307169	-3.30957319	-1.37749068	12.83391655	-3.85733058	8.94210912	8.67457776	1.59204249	13.09569771
4744	47.43000000	8.78400597	1.57529976	6.33758836	8.49727518	2.28050189	3.94042390	10.00534393	2.06387703	0.15324554	8.78882639	2.38920519	1.44021060	9.53387104	-7.56698172	-1.77640096	9.27508150	-4.31606635	-2.62544140	14.96135836	-4.26918927	8.89183906	7.43525660	1.55820987	11.86381405
4745	47.44000000	8.66330018	1.62249043	6.24930608	8.21623235	2.26825134	3.93901284	9.39122445	3.06598867	0.17029394	8.94206057	2.96047624	1.02599479	9.33645954	-7.10758529	-1.03583301	9.52050130	-3.67902928	-3.36506029	15.47065758	-3.49386343	8.16385601	6.41782127	1.46350675	11.13718003
4746	47.45000000	8.70159451	1.51450776	6.24943198	8.27896917	1.89318504	4.02670923	8.88471838	4.38078961	0.12170004	9.68282968	3.28570612	0.58860743	8.79619584	-5.19937119	0.22398524	9.55134050	-1.84544608	-3.48462368	14.40806595	-2.60720283	7.88568393	5.86766060	1.29366030	11.04602572
4747	47.46000000	8.78428647	1.31303461	6.29238275	8.54505778	1.28697492	4.17258582	8.55517147	5.90259919	-0.29755044	10.47585753	3.16050862	0.36934137	8.66091594	-3.27408651	1.01963882	9.70457562	0.07318032	-3.11867211	12.53388037	-3.70092172	9.96593301	5.61043566	1.05760627	11.18649372
4748	47.47000000	8.84605036	1.06646824	6.34172966	8.88412544	0.58502136	4.33814353	8.37735537	7.35009300	-1.11882997	10.96757985	2.53309418	0.48623288	9.26497645	-2.28962581	0.79784577	10.11482036	1.34102073	-2.45573101	10.27591143	-7.34218883	14.73561054	5.50283615	0.81711136	11.26680808
4749	47.48000000	8.93284780	0.79217989	6.38228599	9.19173872	-0.07111522	4.46810932	8.11392425	8.05190288	-1.76001764	11.21983309	1.69317452	0.78074754	10.00762857	-2.11374640	-0.01940257	10.45809820	2.07963865	-1.79767866	7.29951125	-10.66720669	18.98314317	5.48288935	0.75115287	11.26067911
